<?xml version="1.0" encoding="UTF-8"?><svg id="logo_artowrk" xmlns="http://www.w3.org/2000/svg" xmlns:xlink="http://www.w3.org/1999/xlink" viewBox="0 0 394.82 200.85"><defs><style>.cls-1{fill:url(#linear-gradient);}.cls-2{fill:#000;}.cls-3{fill:#d2bb2d;}.cls-4{fill:#5a5a5a;}.cls-5{fill:url(#linear-gradient-2);}</style><linearGradient id="linear-gradient" x1="71.47" y1="89.89" x2="118.07" y2="89.89" gradientUnits="userSpaceOnUse"><stop offset="0" stop-color="#929497"/><stop offset="1" stop-color="#58595b"/></linearGradient><linearGradient id="linear-gradient-2" x1="71.47" y1="63.04" x2="118.07" y2="63.04" gradientUnits="userSpaceOnUse"><stop offset="0" stop-color="#efd765"/><stop offset="1" stop-color="#d2bb2d"/></linearGradient></defs><polygon class="cls-3" points="24.8 63.04 71.4 89.95 71.4 36.14 24.8 63.04"/><polygon class="cls-1" points="71.47 89.89 118.07 116.8 118.07 62.98 71.47 89.89"/><polygon class="cls-5" points="118.07 63.04 71.47 89.95 71.47 36.14 118.07 63.04"/><polygon class="cls-4" points="118.07 116.91 71.47 143.82 71.47 90 118.07 116.91"/><path class="cls-2" d="m161.5,102.27l-.12,41.69h-18.11l.12-107.39h35.78c23,0,37.52,11.79,37.52,32.92s-14.52,32.78-37.52,32.78h-17.66Zm0-50.46v35.22h18.52c11.21,0,18.4-6.18,18.4-17.54s-7.48-17.68-19.12-17.68h-17.81Z"/><path class="cls-2" d="m215.35,160.96c1.44.43,4.31,1.15,8.19,1.15,10.35,0,15.67-7.91,20.41-18.54l-29.76-71.45h19.12l9.2,25.45c3.59,9.63,7.19,19.41,10.35,29.04,2.59-6.04,7.62-21.85,10.35-29.04l9.06-25.45h19.12l-28.03,70.01c-8.19,20.41-17.11,31.91-31.2,34.65-3.02.43-5.89.57-8.77.43-3.45,0-6.61-.57-8.05-1.16v-15.09Z"/><path class="cls-2" d="m333.79,106.76l25.87,37.23h-19.41l-16.96-24.58-16.67,24.58h-19.56l25.3-35.8-24.43-36.08h19.69l15.23,24.15,15.38-24.15h20.12l-24.58,34.65Z"/></svg>